<svg width="270" height="56" viewBox="0 0 270 56" fill="none" xmlns="http://www.w3.org/2000/svg">
<g clip-path="url(#clip0_1_13076)">
<path d="M156.737 12.1298H147.774L146.644 16.4275L145.514 12.1298H143.451C141.782 12.1298 140.455 10.8282 140.455 9.13367C140.455 7.43915 141.757 6.13756 143.451 6.13756H156.713C158.383 6.13756 159.709 7.43915 159.709 9.13367C159.709 10.8282 158.407 12.1298 156.737 12.1298ZM156.737 3.7063H143.476C140.48 3.7063 138.049 6.13756 138.049 9.13367C138.049 12.1298 140.48 14.561 143.476 14.561H144.041L146.669 21.29L149.296 14.561H156.958C159.955 14.561 162.386 12.1298 162.386 9.13367C162.14 6.13756 159.709 3.7063 156.737 3.7063ZM255.781 10.6317H263.639V19.7919H270V25.0228H263.639V36.0495C263.639 37.9159 264.204 38.4807 266.267 38.4807C267.569 38.4807 268.895 38.4807 270 38.2843V43.5152C268.502 43.7116 265.702 43.8836 263.836 43.8836C256.37 43.8836 255.805 41.0839 255.805 36.7862V24.8264H250.943V19.7919H255.805L255.781 10.6317ZM52.2668 25.1947C48.7058 25.1947 45.5378 27.0612 45.5378 32.1202V43.5152H37.6792V19.7919H45.1449V23.1564C46.643 21.0935 50.1793 19.0552 54.87 19.0552C58.9712 19.0552 64.9634 20.5532 64.9634 27.6506V43.5152H57.1048V31.2361C57.1293 31.2361 57.0556 25.1947 52.2668 25.1947ZM84.4135 37.7194C87.778 37.7194 91.8792 36.5898 91.8792 31.187C91.8792 25.7841 87.778 24.6545 84.4135 24.6545C81.049 24.6545 76.9478 25.7841 76.9478 31.187C76.9478 36.5898 81.049 37.7194 84.4135 37.7194ZM92.2476 19.7919H99.7133V41.6488C99.7133 49.8758 94.4824 53.0438 84.5854 53.0438C78.7897 53.0438 70.7591 52.307 69.9978 45.1851H78.2248C78.7897 47.0516 80.2877 48.1812 84.7573 48.1812C88.6866 48.1812 91.8546 47.248 91.8546 41.4523V39.5859C89.6199 42.0171 86.2554 43.1468 82.326 43.1468C72.9939 43.1468 68.8681 37.3511 68.8681 31.3834C68.8681 24.8509 72.9694 19.62 83.0628 19.62C86.4273 19.62 89.9882 20.5532 92.0266 23.181V19.7919H92.2476ZM104.404 11.3685H112.263V16.7958H104.404V11.3685ZM104.404 19.7919H112.263V43.5152H104.404V19.7919ZM229.233 36.2214C229.602 38.2843 230.903 39.5859 235.029 39.5859C238.59 39.5859 240.628 38.6527 240.628 36.9581C240.628 35.6565 239.892 35.0917 236.134 34.5269L229.037 33.5937C224.002 32.8569 221.178 31.3589 221.178 26.8647C221.178 20.5041 227.711 18.8342 234.071 18.8342C244.902 18.8342 247.529 22.3951 248.094 26.8647H239.499C239.13 24.4334 236.503 23.6967 234.268 23.6967C232.205 23.6967 229.233 23.8932 229.233 26.128C229.233 27.2576 229.798 27.9944 233.163 28.3628L238.59 28.9276C246.449 29.6643 249.052 32.0956 249.052 36.2214C249.052 43.3187 241.193 44.2519 234.464 44.2519C225.501 44.2519 221.006 41.6242 220.442 36.0249H229.233V36.2214ZM138.982 29.1241C138.982 27.8225 137.312 23.6967 131.688 23.6967C125.524 23.6967 124.222 28.3628 124.222 28.9276H138.982V29.1241ZM146.644 36.4179C144.409 42.0171 138.982 44.4484 131.885 44.4484C122.552 44.4484 116.192 40.7155 116.192 31.7518C116.192 22.788 122.552 19.0552 131.885 19.0552C142.174 19.0552 147.012 24.2861 147.012 33.2498V33.9866H124.222C124.222 36.2214 126.457 39.7823 131.885 39.7823C135.053 39.7823 137.312 38.6527 138.417 36.6143H146.644V36.4179ZM157.671 36.2214C158.039 38.2843 159.341 39.5859 163.466 39.5859C167.027 39.5859 169.066 38.6527 169.066 36.9581C169.066 35.6565 168.329 35.0917 164.572 34.5269L157.474 33.5937C152.44 32.8569 149.616 31.3589 149.616 26.8647C149.616 20.5041 156.148 18.8342 162.509 18.8342C173.339 18.8342 175.967 22.3951 176.531 26.8647H167.936C167.568 24.4334 164.94 23.6967 162.705 23.6967C160.642 23.6967 157.671 23.8932 157.671 26.128C157.671 27.2576 158.236 27.9944 161.6 28.3628L167.199 29.0995C175.058 29.8362 177.661 32.2675 177.661 36.3933C177.661 43.4906 169.802 44.4238 163.074 44.4238C154.11 44.4238 149.616 41.7961 149.051 36.1968C149.075 36.2214 157.671 36.2214 157.671 36.2214ZM208.678 19.7919H216.537V43.5152H208.678V19.7919ZM208.678 11.3685H216.537V16.7958H208.678V11.3685ZM194.852 7.83208H202.71V43.7116H194.852V7.83208ZM18.0572 18.8587L13.1947 31.3834H23.0916L18.0572 18.8587ZM25.351 36.9827H10.7634L8.16022 43.5152H-1L12.8263 12.1298H23.1162L36.9425 43.7116H27.7822L25.351 36.9827Z" fill="#66ED69"/>
</g>
<defs>
<clipPath id="clip0_1_13076">
<rect width="271" height="54.9588" fill="white" transform="translate(-1 0.895508)"/>
</clipPath>
</defs>
</svg>
