<svg width="24" height="24" viewBox="0 0 24 24" fill="none" xmlns="http://www.w3.org/2000/svg">
<g clip-path="url(#clip0_1_12847)">
<path d="M12.1199 0.719948C11.8068 0.757448 2.04742 7.3012 1.99117 7.49995C1.93492 7.70057 1.91242 9.78557 1.91242 9.78557L3.17055 10.1849L3.17617 11.8424L3.8493 13.2206V19.0462L3.3468 20.1431L1.96867 20.5499V21.5362L0.888672 21.8643C0.888672 21.8643 0.903672 22.7099 0.903672 22.8506C0.903672 22.9912 0.950547 23.2893 1.51492 23.2893C2.0793 23.2893 22.678 23.1937 22.8862 23.1937C23.0943 23.1937 23.3099 23.1524 23.3212 22.7793C23.3324 22.4062 23.3099 21.8793 23.3099 21.8793L22.2637 21.3618L22.2599 20.5349L20.5574 20.0099L20.1468 18.8474L20.1524 13.3706L20.8049 11.9943L21.0018 11.6212V10.1399L22.0987 9.72557C22.0987 9.72557 22.1193 7.58245 22.0874 7.52057C22.0593 7.46057 12.3787 0.689948 12.1199 0.719948Z" fill="#CDDFEE"/>
<path d="M2.87415 7.93505C2.81602 8.07942 2.80102 9.14442 2.85352 9.19692C2.90602 9.24942 21.0298 9.2213 21.0916 9.17067C21.1535 9.12005 21.1629 7.96317 21.1329 7.89192C21.1029 7.82067 15.9935 4.3313 15.9935 4.3313L8.09415 4.37067C8.09227 4.37067 2.9079 7.8488 2.87415 7.93505Z" fill="#94ADBC"/>
<path d="M0.888848 21.8681C0.871973 21.8269 0.888848 21.6319 0.888848 21.5531C0.888848 21.4744 0.963848 21.3844 1.1326 21.3844C1.30135 21.3844 22.7213 21.3544 22.8263 21.3581C23.0907 21.3675 23.2688 21.4237 23.2951 21.5925C23.3213 21.7612 23.312 21.8831 23.312 21.8831L0.888848 21.8681Z" fill="#94ADBC"/>
<path d="M22.262 20.5368L1.9707 20.5518C1.9707 20.5518 1.9782 20.3437 1.9782 20.2725C1.9782 20.2012 2.0157 20.085 2.25758 20.085C2.49945 20.085 21.7426 20.0118 21.9076 20.0118C22.0726 20.0118 22.2526 20.0887 22.2751 20.2031C22.2976 20.3175 22.262 20.5368 22.262 20.5368Z" fill="#94ADBC"/>
<path d="M20.2986 19.2806L20.1486 18.8419L3.84551 18.8381L3.72363 19.3275L20.2986 19.2806Z" fill="#94ADBC"/>
<path d="M3.6582 12.8213L20.3945 12.8794L20.1545 13.3707L3.85133 13.4325L3.6582 12.8213Z" fill="#94ADBC"/>
<path d="M3.29267 12.1312C3.29267 12.1312 3.14455 12.0243 3.12017 11.8837C3.0958 11.7431 3.16142 11.6606 3.16142 11.6606L21.0039 11.6212C21.0039 11.6212 21.0714 11.76 21.0133 11.8575C20.9552 11.9568 20.7902 12.0468 20.7902 12.0468L3.29267 12.1312Z" fill="#94ADBC"/>
<path d="M1.9126 9.78559L22.1007 9.72559C22.1007 9.72559 22.1138 9.91871 22.1007 9.99934C22.0895 10.08 21.9845 10.1512 21.7163 10.1512C21.4482 10.1512 21.4482 10.1512 21.4482 10.1512C21.4482 10.1512 2.5501 10.245 2.3401 10.245C2.1301 10.245 1.9801 10.1287 1.94447 10.035C1.92385 9.97309 1.9126 9.78559 1.9126 9.78559Z" fill="#94ADBC"/>
<path d="M3.37695 8.44317L7.62383 5.57629L7.90883 8.49942L3.37695 8.44317Z" fill="#657582"/>
<path d="M16.4156 5.48059L20.6681 8.48059H16.3013L16.4156 5.48059Z" fill="#657582"/>
<path d="M6.26453 12.1181L6.96391 12.1162L7.51141 13.4306L7.46078 18.8418L7.00516 20.0681L6.19141 20.07L5.74328 18.8493L5.72266 13.4193L6.26453 12.1181Z" fill="#54636E"/>
<path d="M9.98811 12.0994L9.29248 13.4006L9.34498 18.8419L9.75748 20.0587L14.3006 20.04L14.7094 18.8419L14.7206 13.3894L14.19 12.0787L9.98811 12.0994Z" fill="#54636E"/>
<path d="M17.1319 12.0656L17.7488 12.0619L18.2944 13.3763L18.2926 18.8438L17.9757 20.0288L16.9463 20.0306L16.6313 18.8438L16.6069 13.3819L17.1319 12.0656Z" fill="#54636E"/>
<path d="M10.2412 20.0569V15.885L13.9012 15.9206L13.9087 20.0456L10.2412 20.0569Z" fill="#6BA4AE"/>
<path d="M11.8612 15.6957L11.8594 20.0513L12.2381 20.0494V15.7594L11.8612 15.6957Z" fill="#A5D0D7"/>
<path d="M10.2412 16.0837V15.0375H13.9012V16.0837C13.9012 16.0837 10.2731 16.0519 10.2412 16.0837Z" fill="#95ACBC"/>
<path d="M10.2415 15.0374H13.9015C13.9015 15.0374 13.9165 14.7112 13.5771 14.6793C13.2377 14.6474 10.744 14.6737 10.534 14.6793C10.2209 14.6887 10.2415 15.0374 10.2415 15.0374Z" fill="#CCDEED"/>
<path d="M12.0729 2.08312C9.35602 2.09999 7.2054 4.24874 7.29727 6.96562C7.38915 9.68249 9.88102 11.5931 12.0729 11.5762C14.3735 11.5594 16.796 9.91312 16.9048 6.95062C17.0154 3.98999 14.5216 2.06624 12.0729 2.08312Z" fill="#CDDFEE"/>
<path d="M12.0898 2.73372C9.81543 2.74872 7.99481 4.61435 8.07168 6.9806C8.14668 9.34685 10.1492 10.8468 11.9848 10.8637C14.1017 10.8825 16.0498 9.49872 16.1398 6.9206C16.2298 4.34247 14.1392 2.7206 12.0898 2.73372Z" fill="#94ADBC"/>
<path d="M11.4339 4.05563C11.4339 4.05563 11.3926 3.33188 11.4433 3.27C11.4939 3.20813 11.7001 3.20813 12.0995 3.20813C12.5008 3.20813 12.6639 3.20813 12.7258 3.25875C12.7876 3.30938 12.7558 4.10063 12.7558 4.10063C12.7558 4.10063 13.2995 4.305 13.6389 4.5675C13.9989 4.845 14.2558 5.21438 14.2351 5.27625C14.2145 5.33813 13.4964 5.96438 13.3933 5.94375C13.2901 5.92313 12.7051 5.23875 12.0076 5.19375C10.8995 5.1225 10.9089 5.985 11.597 6.22125C12.2851 6.4575 14.4545 6.645 14.3701 8.37188C14.2989 9.82501 12.8308 9.92813 12.8308 9.92813C12.8308 9.92813 12.872 10.4719 12.8308 10.5038C12.7895 10.5356 11.4958 10.5544 11.4545 10.4944C11.4133 10.4344 11.4451 9.8775 11.4451 9.8775C11.4451 9.8775 10.8695 9.76501 10.397 9.44625C9.92451 9.1275 9.58514 8.7075 9.57576 8.655C9.56639 8.60438 10.4083 7.89563 10.4683 7.875C10.5283 7.85438 11.3851 8.69813 12.1933 8.7675C13.0145 8.83875 13.3633 8.02875 12.2233 7.68C11.0833 7.33125 9.73889 7.03313 9.80076 5.60625C9.86264 4.15688 11.4339 4.05563 11.4339 4.05563Z" fill="#024FAC"/>
</g>
<defs>
<clipPath id="clip0_1_12847">
<rect width="24" height="24" fill="white"/>
</clipPath>
</defs>
</svg>
