<svg width="24" height="25" viewBox="0 0 24 25" fill="none" xmlns="http://www.w3.org/2000/svg">
<g clip-path="url(#clip0_1_13149)">
<path d="M19.8787 23.3151H6.78373C6.47248 23.3151 6.54748 23.0619 6.54748 22.7507V3.13444C6.54748 2.82319 6.80061 2.57007 7.11186 2.57007H20.1169C20.6269 2.57007 21.0412 2.98444 21.0412 3.49444V22.1994C21.0412 22.9232 20.6981 23.3151 19.8787 23.3151Z" fill="#C62828"/>
<path d="M3.47461 22.0888C3.47461 22.4526 4.05023 22.7582 4.41398 22.7582L19.4871 22.7488C20.0459 22.7488 20.3384 22.4526 20.3384 22.0888L20.2915 18.0913H3.47461V22.0888Z" fill="#94C6D6"/>
<path d="M19.0256 20.3526C19.0256 20.3526 18.6262 21.4495 19.0312 21.9989C19.5018 22.6364 20.3231 22.4826 20.3231 22.1845V3.58265C20.3231 3.4589 20.2087 3.3689 20.0887 3.39515C19.8281 3.4514 19.3593 3.45327 18.7368 3.04077L19.0256 20.3526Z" fill="#F5F5F5"/>
<path d="M17.6551 21.2845H4.43262V1.70947C4.43262 1.70947 17.5557 1.70947 17.9795 1.70947C18.4051 1.70947 18.7051 1.82385 18.8457 2.01322C19.0295 2.25885 19.127 2.63197 19.127 3.04072V19.8126C19.127 20.6245 18.4689 21.2845 17.6551 21.2845Z" fill="#C62828"/>
<path d="M17.2523 20.7089H4.78914C4.27164 20.7089 3.85352 20.2889 3.85352 19.7733V2.64705C3.85352 2.12955 4.27352 1.71143 4.78914 1.71143H17.2523C17.9685 1.71143 18.5498 2.12018 18.5498 3.00893V19.4133C18.5479 20.1277 17.9685 20.7089 17.2523 20.7089Z" fill="#F44336"/>
<path d="M6.45578 21.0782C6.45578 21.0782 6.44641 1.98694 6.44641 1.71131H4.34641C4.34641 1.71131 3.91328 1.63631 3.62453 1.71131C3.10141 1.84819 2.95703 2.22881 2.95703 2.84944V20.5513C2.95703 21.8076 3.03391 22.3513 3.41453 22.7488C3.39203 22.4601 3.57766 21.4682 3.72953 21.1963C3.86453 20.9563 6.45578 21.0782 6.45578 21.0782Z" fill="#616161"/>
<path d="M4.34619 1.70947V21.2845" stroke="#424242" stroke-width="2" stroke-miterlimit="10"/>
<path d="M6.44627 21.0012L4.32752 21.0425C3.62064 21.0425 3.37877 21.8 3.50439 22.3006C3.66189 22.9325 4.31439 23.0356 4.47564 23.0356C4.63689 23.0356 6.84752 23.0356 6.84752 23.0356" stroke="#424242" stroke-width="3" stroke-miterlimit="10"/>
</g>
<defs>
<clipPath id="clip0_1_13149">
<rect width="24" height="24" fill="white" transform="translate(0 0.5)"/>
</clipPath>
</defs>
</svg>
