<svg width="24" height="25" viewBox="0 0 24 25" fill="none" xmlns="http://www.w3.org/2000/svg">
<g clip-path="url(#clip0_1_13161)">
<path d="M22.4826 12.1419L21.3416 12.3701C20.962 12.446 20.5803 12.2485 20.4231 11.8947L19.2009 9.14472C19.0975 8.91189 18.8925 8.73976 18.6454 8.67793L18.0087 8.51879C17.6402 8.42668 17.3818 8.0957 17.3818 7.71592V3.30329C17.3818 3.09709 17.3048 2.89829 17.1659 2.74586L15.6287 1.05901C14.2428 0.620122 12.7487 0.424326 11.1955 0.526607C5.22573 0.919888 0.389688 5.77614 0.0254228 11.7477C-0.399593 18.716 5.12594 24.5 12.0025 24.5C18.5613 24.5 23.8878 19.2371 23.9973 12.7044L23.0151 12.2132C22.8505 12.1309 22.6631 12.1058 22.4826 12.1419Z" fill="#FFE6A1"/>
<path d="M15.7266 20.7759C15.6537 20.7759 15.582 20.7717 15.5094 20.7704C15.0548 21.2804 14.3947 21.6034 13.6576 21.6034C12.572 21.6034 11.6515 20.9055 11.3142 19.9348C9.82922 19.3471 8.48982 18.4728 7.36416 17.3784C7.19386 17.4297 7.017 17.4655 6.82997 17.4655C5.80158 17.4655 4.96791 16.6318 4.96791 15.6034C4.96791 15.2443 5.07441 14.9119 5.25057 14.6275C5.23796 14.6049 5.2245 14.583 5.21199 14.5604C3.92035 14.4728 2.89899 13.4001 2.89899 12.0862C2.89899 11.3119 3.25364 10.6207 3.80916 10.1654C3.75652 9.70925 3.72657 9.24621 3.72657 8.77587C3.72657 6.41576 4.41066 4.21671 5.58736 2.36084C2.23177 4.4884 0.00244141 8.23273 0.00244141 12.5C0.00244141 19.1275 5.37502 24.5 12.0024 24.5C16.2698 24.5 20.014 22.2707 22.1416 18.9151C20.2858 20.0918 18.0867 20.7759 15.7266 20.7759Z" fill="#FFD796"/>
<path d="M9.3128 10.431C9.88413 10.431 10.3473 9.96787 10.3473 9.39654C10.3473 8.82521 9.88413 8.36206 9.3128 8.36206C8.74147 8.36206 8.27832 8.82521 8.27832 9.39654C8.27832 9.96787 8.74147 10.431 9.3128 10.431Z" fill="#FFD796"/>
<path d="M20.2781 17.2587C20.8495 17.2587 21.3126 16.7955 21.3126 16.2242C21.3126 15.6529 20.8495 15.1897 20.2781 15.1897C19.7068 15.1897 19.2437 15.6529 19.2437 16.2242C19.2437 16.7955 19.7068 17.2587 20.2781 17.2587Z" fill="#FFD796"/>
<path d="M10.8643 17.2586C11.2642 17.2586 11.5884 16.9344 11.5884 16.5344C11.5884 16.1345 11.2642 15.8103 10.8643 15.8103C10.4643 15.8103 10.1401 16.1345 10.1401 16.5344C10.1401 16.9344 10.4643 17.2586 10.8643 17.2586Z" fill="#FFD796"/>
<path d="M16.4507 10.6379C16.8506 10.6379 17.1748 10.3137 17.1748 9.91382C17.1748 9.5139 16.8506 9.1897 16.4507 9.1897C16.0508 9.1897 15.7266 9.5139 15.7266 9.91382C15.7266 10.3137 16.0508 10.6379 16.4507 10.6379Z" fill="#FFD796"/>
<path d="M13.5542 4.22413C13.9541 4.22413 14.2783 3.89993 14.2783 3.5C14.2783 3.10008 13.9541 2.77588 13.5542 2.77588C13.1543 2.77588 12.8301 3.10008 12.8301 3.5C12.8301 3.89993 13.1543 4.22413 13.5542 4.22413Z" fill="#FFD796"/>
<path d="M11.4005 11.1588L10.9222 11.9561C10.6362 12.4326 10.892 13.05 11.4311 13.1847L12.855 13.5407C13.2984 13.6516 13.7478 13.382 13.8586 12.9385L14.0215 12.287C14.0544 12.1552 14.0544 12.0173 14.0215 11.8855L13.8492 11.1966C13.7421 10.768 13.3173 10.4992 12.8841 10.5858L11.9479 10.773C11.7192 10.8188 11.5205 10.9589 11.4005 11.1588Z" fill="#B97850"/>
<path d="M13.7889 16.2815L13.29 17.113C13.042 17.5264 13.1984 18.0634 13.6295 18.279L15.2177 19.0731C15.6913 19.3099 16.2623 19.0473 16.3907 18.5336L16.5543 17.8793L16.7455 17.1143C16.8645 16.6383 16.5455 16.1637 16.0597 16.0943L14.6155 15.888C14.286 15.8409 13.9602 15.996 13.7889 16.2815Z" fill="#B97850"/>
<path d="M5.08179 11.3449L4.47293 12.3597C4.27755 12.6854 4.32888 13.1022 4.59738 13.3707L5.5556 14.329C5.9044 14.6778 6.4789 14.646 6.78705 14.2608L7.60854 13.2339C7.76988 13.0322 7.82782 12.7668 7.76515 12.5162L7.57779 11.7668C7.50021 11.4564 7.25083 11.2187 6.93724 11.1559L5.95371 10.9592C5.61077 10.8906 5.26174 11.045 5.08179 11.3449Z" fill="#B97850"/>
<path d="M8.4511 4.62593L7.9816 5.40846C7.70921 5.86245 7.92727 6.45195 8.42954 6.61939L9.44836 6.959C9.74574 7.05809 10.0736 6.9807 10.2953 6.75907L10.8436 6.21068C11.0492 6.00514 11.1318 5.70678 11.0613 5.42478L10.9179 4.85107C10.8258 4.48259 10.4948 4.22412 10.115 4.22412H9.16069C8.87007 4.22417 8.60068 4.3767 8.4511 4.62593Z" fill="#B97850"/>
<path d="M18.446 11.022L17.967 11.501C17.6438 11.8242 17.6438 12.3482 17.967 12.6714L18.2014 12.9058C18.4533 13.1577 18.8381 13.2202 19.1567 13.0608L20.5122 12.3831C20.8591 12.2096 21.0391 11.8185 20.945 11.4422L20.8836 11.1966C20.7765 10.768 20.3516 10.4992 19.9184 10.5858L18.8689 10.7957C18.7087 10.8277 18.5615 10.9065 18.446 11.022Z" fill="#B97850"/>
<path d="M15.3689 5.11527L14.8193 5.84811C14.6174 6.11727 14.5986 6.48195 14.7717 6.77047L15.2803 7.61802C15.5234 8.0232 16.0558 8.14292 16.449 7.88085L17.4816 7.19239C17.877 6.92886 17.9697 6.38731 17.6847 6.00725L17.1233 5.25875C17.0223 5.12408 16.8826 5.02339 16.7229 4.97019L16.2927 4.82675C15.9547 4.71402 15.5826 4.83027 15.3689 5.11527Z" fill="#B97850"/>
<path d="M8.28696 18.19L7.74659 18.8655C7.39966 19.2991 7.56987 19.9446 8.08549 20.1509L8.81135 20.4412C9.0087 20.5202 9.22877 20.5202 9.42607 20.4412L10.2407 20.1154C10.7287 19.9202 10.9135 19.3253 10.6219 18.8879L10.482 18.678C10.4021 18.5582 10.2924 18.4613 10.1636 18.3969L9.3034 17.9668C8.95423 17.7923 8.53071 17.8853 8.28696 18.19Z" fill="#B97850"/>
<path d="M6.58249 14.2306L5.62427 13.2724C5.35577 13.0039 5.3044 12.587 5.49982 12.2614L6.10868 11.2466C6.16061 11.1601 6.22924 11.0898 6.30513 11.0294L5.95375 10.9592C5.61082 10.8906 5.26174 11.0451 5.08179 11.3449L4.47293 12.3597C4.27755 12.6854 4.32888 13.1022 4.59738 13.3707L5.5556 14.3289C5.8789 14.6522 6.39349 14.6444 6.71271 14.3354C6.66696 14.3051 6.6229 14.271 6.58249 14.2306Z" fill="#A5694B"/>
<path d="M10.2773 6.66434L9.2585 6.32478C8.75628 6.15734 8.53813 5.56784 8.81057 5.11386L9.28007 4.33132C9.30393 4.29148 9.33547 4.25871 9.36505 4.22412H9.16077C8.8701 4.22412 8.60071 4.37665 8.45113 4.62593L7.98163 5.40842C7.70919 5.8624 7.92725 6.4519 8.42957 6.61934L9.44839 6.95895C9.74577 7.05804 10.0736 6.98065 10.2953 6.75903L10.3724 6.68192C10.3407 6.67536 10.3086 6.67475 10.2773 6.66434Z" fill="#A5694B"/>
<path d="M13.6402 13.3026L12.2163 12.9466C11.6771 12.8118 11.4214 12.1945 11.7074 11.718L12.1857 10.9207C12.2427 10.8258 12.3183 10.7457 12.4056 10.6814L11.9479 10.7729C11.7193 10.8186 11.5205 10.9588 11.4005 11.1587L10.9222 11.956C10.6362 12.4326 10.892 13.0499 11.4311 13.1847L12.855 13.5406C13.1549 13.6156 13.4549 13.5138 13.6536 13.3046C13.6491 13.3035 13.6447 13.3037 13.6402 13.3026Z" fill="#A5694B"/>
<path d="M16.0534 7.54623L15.5448 6.69869C15.3717 6.41017 15.3905 6.04558 15.5924 5.77633L16.142 5.04353C16.2022 4.96323 16.2769 4.90033 16.3579 4.84816L16.2927 4.82645C15.9547 4.71381 15.5826 4.83006 15.3689 5.11502L14.8193 5.84781C14.6174 6.11702 14.5986 6.48166 14.7717 6.77017L15.2803 7.61772C15.5226 8.02155 16.0521 8.14131 16.4449 7.8827C16.2875 7.81722 16.1482 7.70425 16.0534 7.54623Z" fill="#A5694B"/>
<path d="M18.8656 12.8507C18.5424 12.5275 18.5424 12.0035 18.8656 11.6803L19.3446 11.2013C19.4601 11.0858 19.6072 11.007 19.7675 10.975L20.6509 10.7983C20.4619 10.6187 20.192 10.531 19.9184 10.5857L18.8689 10.7956C18.7087 10.8277 18.5615 10.9065 18.446 11.022L17.967 11.501C17.6438 11.8242 17.6438 12.3481 17.967 12.6714L18.2014 12.9058C18.4377 13.1421 18.7893 13.204 19.0951 13.0803L18.8656 12.8507Z" fill="#A5694B"/>
<path d="M14.6547 18.2095C14.2235 17.9939 14.0671 17.4569 14.3152 17.0435L14.814 16.2121C14.8795 16.1031 14.972 16.0205 15.074 15.9535L14.6155 15.888C14.2859 15.8409 13.9602 15.9959 13.7889 16.2815L13.29 17.1129C13.042 17.5263 13.1984 18.0634 13.6295 18.2789L15.2177 19.0731C15.5343 19.2313 15.8915 19.163 16.1338 18.9492L14.6547 18.2095Z" fill="#A5694B"/>
<path d="M9.63893 20.3027L8.91307 20.0124C8.39749 19.8062 8.22729 19.1606 8.57416 18.727L9.11454 18.0515C9.14885 18.0086 9.18738 17.9711 9.22807 17.9368C8.89498 17.8092 8.5136 17.9065 8.28696 18.1898L7.74659 18.8653C7.39966 19.2989 7.56987 19.9444 8.08549 20.1507L8.81135 20.441C9.0087 20.52 9.22877 20.52 9.42607 20.441L9.71562 20.3252C9.68998 20.3178 9.66387 20.3127 9.63893 20.3027Z" fill="#A5694B"/>
<path d="M3.31245 17.465C3.25043 17.465 3.18715 17.4509 3.12781 17.4213C2.92334 17.3191 2.84046 17.0706 2.94275 16.8661L3.35656 16.0386C3.45884 15.8341 3.70671 15.7521 3.91175 15.8535C4.11621 15.9558 4.19909 16.2042 4.09681 16.4087L3.683 17.2363C3.61048 17.3813 3.46442 17.465 3.31245 17.465Z" fill="#C98850"/>
<path d="M10.7612 22.8447H10.3474C10.1189 22.8447 9.93359 22.6597 9.93359 22.4309C9.93359 22.2022 10.1189 22.0171 10.3474 22.0171H10.7612C10.9897 22.0171 11.175 22.2022 11.175 22.4309C11.175 22.6597 10.9897 22.8447 10.7612 22.8447Z" fill="#925F4A"/>
<path d="M9.10542 14.9827C9.0434 14.9827 8.98012 14.9686 8.92078 14.9391C8.71631 14.8368 8.63343 14.5883 8.73571 14.3839L9.14953 13.5563C9.25157 13.3523 9.4995 13.2698 9.70471 13.3713C9.90918 13.4735 9.99206 13.722 9.88978 13.9264L9.47597 14.754C9.40345 14.8991 9.25734 14.9827 9.10542 14.9827Z" fill="#C98850"/>
<path d="M6.62294 8.36187C6.56092 8.36187 6.49764 8.34776 6.4383 8.31823L5.61072 7.90441C5.40625 7.80213 5.32337 7.5537 5.42566 7.34923C5.5277 7.14518 5.77581 7.06231 5.98084 7.16416L6.80842 7.57793C7.01289 7.68021 7.09577 7.92865 6.99348 8.13312C6.92097 8.2782 6.77486 8.36187 6.62294 8.36187Z" fill="#925F4A"/>
<path d="M11.589 2.56884H10.7615C10.533 2.56884 10.3477 2.38377 10.3477 2.15502C10.3477 1.92627 10.533 1.74121 10.7615 1.74121H11.589C11.8176 1.74121 12.0029 1.92627 12.0029 2.15502C12.0029 2.38377 11.8176 2.56884 11.589 2.56884Z" fill="#925F4A"/>
<path d="M13.2442 8.77588C13.0922 8.77588 12.9462 8.69225 12.8736 8.54717L12.4598 7.7196C12.3576 7.51513 12.4404 7.2666 12.6449 7.16441C12.8498 7.06255 13.0981 7.14542 13.2001 7.34947L13.6139 8.17705C13.7162 8.38152 13.6333 8.63005 13.4288 8.73224C13.3694 8.76177 13.3062 8.77588 13.2442 8.77588Z" fill="#C98850"/>
<path d="M1.8884 10.8021C1.83276 10.7747 1.78227 10.7341 1.74201 10.6813C1.60373 10.4993 1.6393 10.2397 1.82141 10.1015L2.55838 9.54199C2.7403 9.40366 2.99966 9.43957 3.13823 9.6214C3.27651 9.80346 3.24093 10.063 3.05882 10.2012L2.3219 10.7607C2.19266 10.8588 2.02466 10.8693 1.8884 10.8021Z" fill="#925F4A"/>
<path d="M17.382 15.3966C17.2761 15.3966 17.1702 15.3562 17.0894 15.2754L16.2618 14.4478C16.1002 14.2862 16.1002 14.0243 16.2618 13.8627C16.4235 13.701 16.6854 13.701 16.847 13.8627L17.6746 14.6903C17.8362 14.8519 17.8362 15.1138 17.6746 15.2754C17.5937 15.3562 17.4878 15.3966 17.382 15.3966Z" fill="#925F4A"/>
<path d="M18.2097 19.5346C18.1038 19.5346 17.9979 19.4942 17.9171 19.4134C17.7555 19.2518 17.7555 18.9899 17.9171 18.8282L18.3309 18.4144C18.4926 18.2528 18.7544 18.2528 18.9161 18.4144C19.0777 18.5761 19.0777 18.8379 18.9161 18.9996L18.5023 19.4134C18.4214 19.4942 18.3156 19.5346 18.2097 19.5346Z" fill="#C98850"/>
<path d="M19.0371 2.15527V3.19927C19.0371 3.49205 19.3328 3.6922 19.6046 3.58345L20.846 3.08691C21.003 3.02405 21.1061 2.87189 21.1061 2.70272V2.15527C21.1061 1.92675 20.9208 1.74146 20.6923 1.74146H19.4509C19.2224 1.74146 19.0371 1.92675 19.0371 2.15527Z" fill="#FFE6A1"/>
<path d="M19.9219 5.41749L19.6578 7.26595C19.5957 7.70077 19.8841 8.10839 20.3148 8.1945L21.0726 8.34605C21.4015 8.41186 21.7375 8.27264 21.9235 7.99359L22.2085 7.56609C22.3561 7.34461 22.3883 7.06566 22.2948 6.81647L21.4315 4.51439C21.3241 4.22808 20.9569 4.14853 20.7406 4.36477L20.156 4.94935C20.0293 5.07595 19.9472 5.24025 19.9219 5.41749Z" fill="#FFE6A1"/>
<path d="M21.9963 7.61094L21.2385 7.45939C20.8078 7.37324 20.5194 6.96561 20.5815 6.53084L20.8456 4.68242C20.8692 4.51756 20.946 4.367 21.0579 4.24447C20.9456 4.2388 20.8303 4.27494 20.7406 4.36456L20.1559 4.94919C20.0293 5.0758 19.9471 5.2401 19.9219 5.41733L19.6578 7.26575C19.5957 7.70061 19.8841 8.10819 20.3148 8.1943L21.0726 8.34584C21.4014 8.41156 21.7375 8.27244 21.9235 7.99339L22.1729 7.61942C22.1142 7.6206 22.0554 7.6228 21.9963 7.61094Z" fill="#FFD796"/>
<path d="M20.4322 2.75583C20.1604 2.86453 19.8647 2.66438 19.8647 2.37164V1.74146H19.4509C19.2224 1.74146 19.0371 1.92675 19.0371 2.15527V3.19927C19.0371 3.49205 19.3328 3.6922 19.6046 3.58345L20.846 3.08691C21.003 3.02405 21.1061 2.87194 21.1061 2.70272V2.4863L20.4322 2.75583Z" fill="#FFD796"/>
<path d="M22.1398 9.52474L21.8952 10.0139C21.837 10.1304 21.837 10.2675 21.8952 10.384L22.0068 10.6073C22.1182 10.8299 22.3994 10.9046 22.6065 10.7666L23.2735 10.3219C23.3887 10.2451 23.4578 10.1159 23.4578 9.9776V9.53177C23.4578 9.24935 23.1811 9.04989 22.9132 9.13924L22.379 9.31727C22.275 9.35191 22.1889 9.42654 22.1398 9.52474Z" fill="#FFD796"/>
</g>
<defs>
<clipPath id="clip0_1_13161">
<rect width="24" height="24" fill="white" transform="translate(0 0.5)"/>
</clipPath>
</defs>
</svg>
