<svg width="1044" height="142" viewBox="0 0 1044 142" fill="none" xmlns="http://www.w3.org/2000/svg">
<path d="M674 71C674 154.947 605.947 223 522 223C438.053 223 370 154.947 370 71C370 -12.9473 438.053 -81 522 -81C605.947 -81 674 -12.9473 674 71ZM409.943 71C409.943 132.887 460.113 183.057 522 183.057C583.887 183.057 634.057 132.887 634.057 71C634.057 9.11274 583.887 -41.0568 522 -41.0568C460.113 -41.0568 409.943 9.11274 409.943 71Z" fill="#66ED69" fill-opacity="0.18"/>
<path d="M807 71C807 228.401 679.401 356 522 356C364.599 356 237 228.401 237 71C237 -86.4012 364.599 -214 522 -214C679.401 -214 807 -86.4012 807 71ZM311.893 71C311.893 187.039 405.961 281.107 522 281.107C638.039 281.107 732.107 187.039 732.107 71C732.107 -45.0386 638.039 -139.107 522 -139.107C405.961 -139.107 311.893 -45.0386 311.893 71Z" fill="#66ED69" fill-opacity="0.18"/>
<path d="M1044 71C1044 359.293 810.293 593 522 593C233.707 593 0 359.293 0 71C0 -217.293 233.707 -451 522 -451C810.293 -451 1044 -217.293 1044 71ZM137.173 71C137.173 283.534 309.466 455.827 522 455.827C734.534 455.827 906.827 283.534 906.827 71C906.827 -141.534 734.534 -313.827 522 -313.827C309.466 -313.827 137.173 -141.534 137.173 71Z" fill="#66ED69" fill-opacity="0.18"/>
</svg>
