<svg width="24" height="17" viewBox="0 0 24 17" fill="none" xmlns="http://www.w3.org/2000/svg">
<path d="M22.0577 15.6831H1.94273C1.42898 15.6831 1.22461 15.3625 1.22461 14.965V2.03502C1.22461 1.63752 1.54523 1.31689 1.94273 1.31689H22.0559C22.4534 1.31689 22.774 1.63752 22.774 2.03502V14.965C22.7759 15.3625 22.4534 15.6831 22.0577 15.6831Z" fill="white"/>
<path d="M16.6934 7.29251L22.3878 2.02001C22.5022 1.92439 22.7253 1.87376 22.7253 1.87376C22.7253 1.87376 22.4647 1.58876 22.1216 1.85689L13.1741 8.95751C12.8291 9.23126 12.4166 9.37189 12.0003 9.38501C11.5841 9.37189 11.1716 9.23126 10.8266 8.95751L1.87719 1.85689C1.53406 1.58876 1.27344 1.87376 1.27344 1.87376C1.27344 1.87376 1.49656 1.92626 1.61094 2.02001L7.24156 7.27564L1.46469 15.1694C1.36531 15.28 1.63719 15.46 1.76281 15.3381L8.07406 7.82126L10.3934 9.90251C10.8509 10.3131 11.4247 10.525 12.0022 10.5381C12.5797 10.525 13.1516 10.3131 13.6109 9.90251L15.9153 7.83251L22.1028 15.3363C22.2284 15.4581 22.5003 15.2781 22.4009 15.1675L16.6934 7.29251Z" fill="#6FBFF0" stroke="#6FBFF0" stroke-width="0.5" stroke-miterlimit="10"/>
<path d="M22.0577 15.6831H1.94273C1.42898 15.6831 1.22461 15.3625 1.22461 14.965V2.03502C1.22461 1.63752 1.54523 1.31689 1.94273 1.31689H22.0559C22.4534 1.31689 22.774 1.63752 22.774 2.03502V14.965C22.7759 15.3625 22.4534 15.6831 22.0577 15.6831Z" stroke="#6FBFF0" stroke-miterlimit="10"/>
<path d="M14.3794 4.18384C12.6413 4.18384 12.0038 6.23696 12.0038 6.23696C12.0038 6.23696 11.3738 4.18384 9.62257 4.18384C8.30632 4.18384 6.80632 5.21509 7.36132 7.55509C7.91632 9.89696 12.0076 12.8145 12.0076 12.8145C12.0076 12.8145 16.0857 9.89696 16.6407 7.55509C17.1938 5.21509 15.6957 4.18384 14.3794 4.18384Z" fill="#B71C1C"/>
<path d="M14.1055 4.18384C12.568 4.18384 12.0037 6.02134 12.0037 6.02134C12.0037 6.02134 11.4468 4.18384 9.89803 4.18384C8.73365 4.18384 7.40803 5.10634 7.8974 7.20259C8.38678 9.29884 12.0074 11.9107 12.0074 11.9107C12.0074 11.9107 15.6149 9.29884 16.1062 7.20259C16.5937 5.10634 15.268 4.18384 14.1055 4.18384Z" fill="#F44336"/>
</svg>
