<svg width="270" height="38" viewBox="0 0 270 38" fill="none" xmlns="http://www.w3.org/2000/svg">
<path fill-rule="evenodd" clip-rule="evenodd" d="M90.1689 10.5028C90.1689 12.2242 89.2161 14.7617 84.6651 14.7617H79.1756V6.65527H84.6651C89.2161 6.65368 90.1689 8.81169 90.1689 10.5028ZM84.1299 2.31702H71.4963V28.3672H79.174V19.1381H85.7433C93.3162 19.1381 97.8386 15.4509 97.8386 10.6124C97.8402 5.23565 93.8513 2.31702 84.1299 2.31702ZM260.864 7.78588C257.968 7.78588 255.167 8.84028 253.62 10.298H253.522V8.20827H247.183V28.3672H253.622V14.56C255.105 12.8196 257.176 12.1972 258.884 12.1972C263.483 12.1972 263.558 15.1492 263.558 19.0015V28.3672H270V16.8943C269.998 12.4401 268.863 7.78588 260.864 7.78588ZM121.459 20.8514L114.812 2.31702H102.569V28.3672H109.977V7.74459H110.412L117.988 28.3672H124.93L132.497 7.74459H132.943V28.3672H140.367V2.31702H128.17L121.459 20.8514ZM164.01 18.271C164.01 22.2012 161.976 24.8864 157.733 24.8864C153.505 24.8864 151.443 22.2012 151.443 18.271C151.443 14.3266 153.505 11.6208 157.733 11.6208C161.976 11.6223 164.01 14.3266 164.01 18.271ZM170.868 18.271C170.868 11.0936 165.115 7.52387 157.734 7.52387C150.357 7.52387 144.597 11.0936 144.597 18.271C144.597 25.4104 150.357 28.9992 157.734 28.9992C165.113 28.9992 170.868 25.4104 170.868 18.271ZM209.731 8.20351V10.136H209.634C208.242 8.7561 206.061 7.78588 202.235 7.78588C194.757 7.78588 191.503 13.2293 191.503 18.1631C191.503 23.9686 194.849 28.3386 201.785 28.5752C205.326 28.7276 208.062 27.1794 209.344 25.9583H209.437V26.8015C209.437 29.9091 208.221 32.9325 201.911 32.9325C199.389 32.9325 196.564 32.5133 193.887 31.2207V35.894C196.52 36.7753 199.457 37.1008 202.865 37.1008C213.345 37.1008 215.81 31.4128 215.81 25.9853V8.20351H209.731ZM203.743 24.3132C200.008 24.3132 198.211 21.3231 198.211 18.2504C198.211 15.1793 199.672 11.9209 203.973 11.9209C207.764 11.9209 209.472 14.7061 209.472 18.1361C209.471 21.0563 207.938 24.3132 203.743 24.3132ZM242.024 15.6875C242.024 10.4949 238.802 7.78429 231.467 7.78429C229.076 7.78429 225.617 8.05107 222.606 8.86409V12.8895C224.955 12.04 227.764 11.6208 230.05 11.6208C233.298 11.6208 235.791 12.0336 235.791 16.0813H232.628C229.936 16.0813 226.239 16.3417 224.223 17.0118C221.887 17.7899 219.664 19.4525 219.664 22.3997C219.664 27.1349 223.807 28.842 228.466 28.842C231.902 28.842 234.319 28.0766 236.077 26.3457H236.17V28.3672H242.027V15.6875H242.024ZM235.789 22.9428C233.736 24.5021 231.65 24.9531 229.801 25.0293C227.599 25.0976 226.07 24.4005 226.07 22.3028C226.07 19.8336 229.642 19.4223 233.569 19.4223H235.789V22.9428ZM57.4065 2.31702V18.1535C57.4065 21.7296 55.7677 23.9352 52.1091 23.9876C50.9309 24.0067 48.4346 23.9352 46.2544 23.4604V28.4069C48.4569 28.7451 51.1341 28.8372 53.3175 28.8372C60.6125 28.8372 65.0889 24.9817 65.0889 19.0205V2.31543L57.4065 2.31702ZM187.965 7.78588C185.226 7.78588 182.665 8.49251 181.08 11.2714H180.982V8.20668H174.854V28.3656H181.521V18.5124C181.521 16.4036 181.869 15.1285 182.312 14.3997C183.044 13.1801 183.946 12.5052 185.699 12.248C186.581 12.1273 187.87 12.2353 188.777 12.753L191.764 8.49092C190.524 8.02407 189.482 7.78588 187.965 7.78588Z" fill="#66ED69"/>
<path d="M23.2827 10.9044H32.3487V22.934L23.2827 32V10.9044Z" fill="#66ED69"/>
<path d="M11.2564 9.07815V0.00110689H23.2827L32.3487 9.07815H11.2564Z" fill="#66ED69"/>
<path d="M21.4531 22.934V32H9.42906L0.356445 22.934H21.4531Z" fill="#66ED69"/>
<path d="M9.42906 21.1056H0.36309V9.06928L9.42906 0V21.1056Z" fill="#66ED69"/>
</svg>
