<svg width="222" height="74" viewBox="0 0 222 74" fill="none" xmlns="http://www.w3.org/2000/svg">
<path d="M95.2667 38.8209C95.2667 49.3129 87.0588 57.0442 76.9859 57.0442C66.9129 57.0442 58.7051 49.3129 58.7051 38.8209C58.7051 28.255 66.9129 20.5977 76.9859 20.5977C87.0588 20.5977 95.2667 28.255 95.2667 38.8209ZM87.2642 38.8209C87.2642 32.2645 82.5071 27.7785 76.9859 27.7785C71.4647 27.7785 66.7075 32.2645 66.7075 38.8209C66.7075 45.3116 71.4647 49.8633 76.9859 49.8633C82.5071 49.8633 87.2642 45.3034 87.2642 38.8209Z" fill="#66ED69"/>
<path d="M134.704 38.8209C134.704 49.3129 126.496 57.0442 116.423 57.0442C106.35 57.0442 98.1426 49.3129 98.1426 38.8209C98.1426 28.2633 106.35 20.5977 116.423 20.5977C126.496 20.5977 134.704 28.255 134.704 38.8209ZM126.702 38.8209C126.702 32.2645 121.945 27.7785 116.423 27.7785C110.902 27.7785 106.145 32.2645 106.145 38.8209C106.145 45.3116 110.902 49.8633 116.423 49.8633C121.945 49.8633 126.702 45.3034 126.702 38.8209Z" fill="#66ED69"/>
<path d="M172.498 21.6986V54.4151C172.498 67.873 164.561 73.3696 155.178 73.3696C146.346 73.3696 141.03 67.4622 139.025 62.6311L145.993 59.7309C147.233 62.6969 150.273 66.1969 155.17 66.1969C161.176 66.1969 164.898 62.4915 164.898 55.516V52.8951H164.619C162.827 55.1052 159.377 57.036 155.022 57.036C145.911 57.036 137.563 49.0993 137.563 38.8867C137.563 28.6001 145.911 20.5977 155.022 20.5977C159.368 20.5977 162.819 22.5284 164.619 24.6728H164.898V21.7068H172.498V21.6986ZM165.465 38.8867C165.465 32.4699 161.184 27.7785 155.737 27.7785C150.216 27.7785 145.59 32.4699 145.59 38.8867C145.59 45.2377 150.216 49.8633 155.737 49.8633C161.184 49.8633 165.465 45.2377 165.465 38.8867Z" fill="#66ED69"/>
<path d="M185.027 2.52222V55.9268H177.222V2.52222H185.027Z" fill="#66ED69"/>
<path d="M215.443 44.8186L221.655 48.9595C219.65 51.9255 214.819 57.0359 206.471 57.0359C196.119 57.0359 188.388 49.0334 188.388 38.8126C188.388 27.9756 196.185 20.5894 205.576 20.5894C215.032 20.5894 219.658 28.1153 221.17 32.1823L222 34.2527L197.639 44.3421C199.504 47.9982 202.404 49.8633 206.471 49.8633C210.546 49.8633 213.373 47.8585 215.443 44.8186ZM196.324 38.2621L212.609 31.5003C211.713 29.2245 209.018 27.6388 205.847 27.6388C201.78 27.6388 196.119 31.2292 196.324 38.2621Z" fill="#66ED69"/>
<path d="M29.1602 34.0802V26.3489H55.2134C55.4681 27.6964 55.5996 29.2903 55.5996 31.0157C55.5996 36.8162 54.0139 43.9888 48.9035 49.0993C43.9327 54.2754 37.5817 57.036 29.1684 57.036C13.5743 57.036 0.461426 44.3339 0.461426 28.7398C0.461426 13.1457 13.5743 0.443604 29.1684 0.443604C37.7953 0.443604 43.9409 3.82863 48.5584 8.24067L43.1029 13.6961C39.7918 10.5905 35.3058 8.17494 29.1602 8.17494C17.7727 8.17494 8.86648 17.3523 8.86648 28.7398C8.86648 40.1273 17.7727 49.3047 29.1602 49.3047C36.5465 49.3047 40.7531 46.3386 43.448 43.6438C45.6335 41.4583 47.0713 38.3362 47.6382 34.072L29.1602 34.0802Z" fill="#66ED69"/>
</svg>
