<svg width="24" height="24" viewBox="0 0 24 24" fill="none" xmlns="http://www.w3.org/2000/svg">
<g clip-path="url(#clip0_1_12798)">
<path d="M0.817402 17.6662C0.817402 17.6662 0.806152 5.67557 0.806152 5.33244C0.806152 4.95557 1.00303 4.88994 1.31803 4.88057C1.6199 4.87119 22.408 4.86182 22.7362 4.87119C23.1655 4.88244 23.2049 5.15244 23.2199 5.49557C23.2349 5.83869 23.2237 17.6756 23.2237 17.6756L11.4805 17.8931L0.817402 17.6662Z" fill="#BACFD4"/>
<path d="M0.817383 17.6663C0.817383 17.6663 0.823008 22.6425 0.823008 22.9013C0.823008 23.16 1.01051 23.3475 1.36488 23.3475C1.71926 23.3475 22.4755 23.3006 22.7586 23.3006C23.0418 23.3006 23.2049 23.0419 23.2293 22.6181C23.2536 22.1944 23.2274 17.6738 23.2274 17.6738L0.817383 17.6663Z" fill="#6BA4AE"/>
<path d="M6.34326 19.2318L6.36389 23.3325H17.4864L17.5051 19.1531L6.34326 19.2318Z" fill="#546F7A"/>
<path d="M7.51855 19.4382V23.3288H8.13731V19.3838L7.51855 19.4382Z" fill="#B9CED3"/>
<path d="M11.6309 19.3651V23.3232H12.2571V19.3051L11.6309 19.3651Z" fill="#B9CED3"/>
<path d="M15.8701 19.3725V23.3325H16.5132V19.2881L15.8701 19.3725Z" fill="#B9CED3"/>
<path d="M7.39684 17.7131C7.39684 17.7131 7.33121 1.68375 7.33121 1.33688C7.33121 0.990005 7.46434 0.716255 7.81121 0.693755C8.15809 0.671255 15.6412 0.671255 15.945 0.693755C16.2487 0.716255 16.4418 0.903755 16.4418 1.29375C16.4418 1.68375 16.485 17.7131 16.485 17.7131L19.6518 18.1031C19.6518 18.1031 19.6518 18.7538 19.6518 19.0575C19.6518 19.3613 19.5431 19.4813 19.2281 19.4813C18.9131 19.4813 4.70621 19.4813 4.42309 19.4813C4.14184 19.4813 4.05371 19.1888 4.05371 18.885C4.05371 18.5813 4.05371 17.865 4.05371 17.865L7.39684 17.7131Z" fill="#F1EDEC"/>
<path d="M4.06132 18.1969L19.6519 18.1894C19.6519 18.1894 19.6613 17.8537 19.6519 17.6869C19.6388 17.4506 19.4382 17.4431 18.9807 17.4431C18.5232 17.4431 4.62382 17.4431 4.42507 17.4431C4.22632 17.4431 4.07257 17.5125 4.05757 17.7112C4.04257 17.91 4.06132 18.1875 4.06132 18.1969Z" fill="#FEFFFD"/>
<path d="M8.90436 12.2644C8.94748 12.3075 14.775 12.3338 14.8125 12.2944C14.8462 12.2588 14.8725 10.1025 14.8275 10.0575C14.7694 9.99938 8.94936 10.0125 8.90436 10.0575C8.85936 10.1025 8.85936 12.2175 8.90436 12.2644Z" fill="#546F7A"/>
<path d="M8.9194 14.0925C8.84253 14.1187 8.9044 16.2843 8.9044 16.2843L14.8425 16.2393C14.8425 16.2393 14.895 14.1431 14.7975 14.0943C14.7375 14.0625 9.01128 14.0625 8.9194 14.0925Z" fill="#546F7A"/>
<path d="M17.2612 6.33933V8.72808H19.5131V6.30933L17.2612 6.33933Z" fill="#546F7A"/>
<path d="M20.4037 6.30933H22.5355L22.5655 8.69808H20.3887L20.4037 6.30933Z" fill="#546F7A"/>
<path d="M20.3739 10.1176L20.3589 12.4294H22.5208L22.5508 10.1176H20.3739Z" fill="#546F7A"/>
<path d="M19.513 10.1025H17.2461V12.4294H19.543L19.513 10.1025Z" fill="#546F7A"/>
<path d="M19.5281 13.9406H17.2612V16.3125H19.5581C19.5581 16.3143 19.4981 13.9106 19.5281 13.9406Z" fill="#546F7A"/>
<path d="M20.3735 13.9256H22.5185V16.3443H20.3735C20.3735 16.3443 20.396 13.9031 20.3735 13.9256Z" fill="#546F7A"/>
<path d="M4.56738 16.2825V13.8806L6.77426 13.8506V16.2525L4.56738 16.2825Z" fill="#546F7A"/>
<path d="M3.72209 16.2675V13.8656H1.47021L1.48521 16.2994C1.48521 16.2975 3.75209 16.2675 3.72209 16.2675Z" fill="#546F7A"/>
<path d="M3.73695 10.0575H1.45508V12.3694H3.73695V10.0575Z" fill="#546F7A"/>
<path d="M4.59766 10.0425V12.3694H6.74453V10.0575L4.59766 10.0425Z" fill="#546F7A"/>
<path d="M6.71244 6.21936H4.62744V8.65311H6.71244V6.21936Z" fill="#546F7A"/>
<path d="M3.69174 6.30943L1.48486 6.29443V8.62131H3.69174V6.30943Z" fill="#546F7A"/>
<path d="M10.6763 3.89631C10.6763 3.89631 10.6725 1.58068 10.6894 1.42318C10.7044 1.26381 10.8 1.23193 10.9125 1.23193C11.0232 1.23193 12.9469 1.23193 13.0575 1.24693C13.1682 1.26193 13.2169 1.35756 13.2169 1.53381C13.2169 1.70818 13.2169 3.88506 13.2169 3.88506C13.2169 3.88506 15.5044 3.90006 15.6 3.90006C15.6957 3.90006 15.7913 4.01068 15.7913 4.13818C15.7913 4.26568 15.7913 6.09193 15.7913 6.23443C15.7913 6.37693 15.7763 6.52131 15.6 6.55131C15.4238 6.58131 13.2019 6.55131 13.2019 6.55131C13.2019 6.55131 13.2019 9.08443 13.2019 9.19318C13.2019 9.30193 13.11 9.39568 12.9563 9.40693C12.8025 9.41818 10.8957 9.40693 10.7888 9.40693C10.6819 9.40693 10.6819 9.08631 10.6819 8.97756C10.6819 8.86881 10.6819 6.60756 10.6819 6.60756C10.6819 6.60756 8.30066 6.60756 8.19191 6.60756C8.08316 6.60756 8.03628 6.50068 8.02503 6.29818C8.01378 6.09568 8.03253 4.26193 8.03628 4.15506C8.04378 3.98818 8.10753 3.90756 8.22566 3.89631C8.34191 3.88693 10.6763 3.89631 10.6763 3.89631Z" fill="#DD0C26"/>
<path d="M12.2419 2.16943H11.6494V8.56318H12.2419V2.16943Z" fill="white"/>
<path d="M14.8594 4.92371H8.94189V5.52558H14.8594V4.92371Z" fill="white"/>
</g>
<defs>
<clipPath id="clip0_1_12798">
<rect width="24" height="24" fill="white"/>
</clipPath>
</defs>
</svg>
