<svg width="24" height="24" viewBox="0 0 24 24" fill="none" xmlns="http://www.w3.org/2000/svg">
<g clip-path="url(#clip0_1_12482)">
<path d="M12.0001 7.76367C10.8748 7.76367 9.79566 8.20993 8.99999 9.00427C8.20433 9.79861 7.75732 10.876 7.75732 11.9993C7.75732 13.1227 8.20433 14.2001 8.99999 14.9944C9.79566 15.7888 10.8748 16.235 12.0001 16.235C13.1253 16.235 14.2045 15.7888 15.0001 14.9944C15.7958 14.2001 16.2428 13.1227 16.2428 11.9993C16.2428 10.876 15.7958 9.79861 15.0001 9.00427C14.2045 8.20993 13.1253 7.76367 12.0001 7.76367Z" fill="#F0FAF0"/>
<path fill-rule="evenodd" clip-rule="evenodd" d="M5.17249 0.376616C9.71029 -0.125539 14.2898 -0.125539 18.8276 0.376616C21.3066 0.652912 23.3053 2.60132 23.5964 5.08538C24.1345 9.679 24.1345 14.3196 23.5964 18.9132C23.3053 21.3973 21.3066 23.3457 18.8289 23.6233C14.2906 24.1256 9.71072 24.1256 5.17249 23.6233C2.69342 23.3457 0.69477 21.3973 0.403653 18.9145C-0.134551 14.3205 -0.134551 9.67943 0.403653 5.08538C0.69477 2.60132 2.69342 0.652912 5.17249 0.376616ZM18.5273 4.1796C18.1811 4.1796 17.849 4.31691 17.6042 4.56132C17.3594 4.80573 17.2219 5.13723 17.2219 5.48288C17.2219 5.82853 17.3594 6.16003 17.6042 6.40444C17.849 6.64885 18.1811 6.78616 18.5273 6.78616C18.8735 6.78616 19.2056 6.64885 19.4504 6.40444C19.6952 6.16003 19.8328 5.82853 19.8328 5.48288C19.8328 5.13723 19.6952 4.80573 19.4504 4.56132C19.2056 4.31691 18.8735 4.1796 18.5273 4.1796ZM5.79911 11.9993C5.79911 10.3574 6.45242 8.78285 7.61532 7.62188C8.77821 6.46092 10.3554 5.8087 12 5.8087C13.6446 5.8087 15.2218 6.46092 16.3847 7.62188C17.5476 8.78285 18.201 10.3574 18.201 11.9993C18.201 13.6411 17.5476 15.2157 16.3847 16.3767C15.2218 17.5377 13.6446 18.1899 12 18.1899C10.3554 18.1899 8.77821 17.5377 7.61532 16.3767C6.45242 15.2157 5.79911 13.6411 5.79911 11.9993Z" fill="#F0FAF0"/>
</g>
<defs>
<clipPath id="clip0_1_12482">
<rect width="24" height="24" fill="white"/>
</clipPath>
</defs>
</svg>
