<svg width="24" height="24" viewBox="0 0 24 24" fill="none" xmlns="http://www.w3.org/2000/svg">
<path d="M18.5736 17.1413C18.5736 17.1413 15.7405 19.8 11.9942 19.8C8.24797 19.8 5.41672 17.1413 5.41672 17.1413C5.41672 17.1413 4.88984 14.6119 6.25109 10.245C6.96922 7.94252 17.188 7.70815 17.9886 9.7219C19.3498 13.14 18.5736 17.1413 18.5736 17.1413Z" fill="#424242"/>
<path d="M5.41691 17.1413L6.31504 17.8613C6.31504 17.8613 6.30754 16.4363 6.74816 15.1069C6.91316 14.61 7.50191 14.4019 7.94441 14.6813L11.3738 16.8319C11.7582 17.0719 12.2419 17.0757 12.63 16.8413C14.2688 15.8475 18.5438 13.2469 18.7388 13.0875C18.7388 13.0875 18.7388 12.7669 18.6582 12.3582L5.36816 12.375L5.41691 17.1413Z" fill="#212121"/>
<path d="M23.0269 9.75567L12.3769 16.0988C12.1444 16.2375 11.8538 16.2375 11.6194 16.0988L0.973164 9.75567C0.676914 9.57942 0.676914 9.15005 0.973164 8.9738L11.6232 2.63067C11.8557 2.49192 12.1463 2.49192 12.3807 2.63067L23.0307 8.9738C23.325 9.15005 23.325 9.57942 23.0269 9.75567Z" fill="#424242"/>
<path d="M12.0077 15.6338C12.0058 15.6338 12.0021 15.6357 12.0002 15.6357C11.9702 15.6357 11.9402 15.6282 11.9139 15.6113L0.783932 9.19507C0.783932 9.19507 0.729557 9.29819 0.783932 9.48382C0.840182 9.66944 0.926432 9.72944 0.973307 9.75757L11.6233 16.1007C11.7396 16.1701 11.8708 16.2057 12.0021 16.2057C12.0039 16.2057 12.0077 16.2057 12.0096 16.2057V15.6338H12.0077Z" fill="#9E9E9E"/>
<path d="M11.9999 15.6338C12.0018 15.6338 12.0055 15.6357 12.0074 15.6357C12.0374 15.6357 12.0674 15.6282 12.0937 15.6113L23.2237 9.19507C23.2237 9.19507 23.278 9.29819 23.2237 9.48382C23.1674 9.66944 23.0812 9.72944 23.0343 9.75757L12.3843 16.1007C12.268 16.1701 12.1368 16.2057 12.0055 16.2057C12.0037 16.2057 11.9999 16.2057 11.998 16.2057V15.6338H11.9999Z" fill="#616161"/>
<path d="M6.64697 13.1363L6.70697 12.6094C6.70697 12.6094 11.3026 10.11 11.7563 9.84751C12.2101 9.58501 12.6863 9.29251 12.8982 9.05813C13.2732 8.64563 13.0032 8.38688 13.0032 8.38688C13.0032 8.38688 12.707 8.86688 12.0001 8.78251C11.5951 8.73376 11.0682 8.40563 10.9801 8.25188C10.892 8.09813 5.79197 11.9831 5.79197 11.9831L5.75635 12.6075L6.64697 13.1363Z" fill="#424242"/>
<path d="M13.0033 8.38883C12.512 9.07508 11.6795 8.77508 11.6795 8.77508C11.6795 8.77508 9.07141 10.0257 8.97391 9.83633C8.87641 9.64695 11.1283 8.4882 11.1283 8.4882C11.1283 8.4882 11.0027 8.02695 11.0158 7.83008C11.0158 7.83008 6.94329 10.4213 5.41516 11.2932C4.61454 11.7507 4.44391 12.182 4.44579 12.7895C4.44579 13.0557 4.44954 13.9201 4.45329 14.4357C4.45329 14.5313 4.41204 14.6213 4.33891 14.6813C4.12329 14.8595 3.98454 15.1276 3.98454 15.4295C3.98454 15.7163 4.11016 15.9732 4.30891 16.1513C4.41579 16.247 4.39329 16.4532 4.40266 16.5863C4.42141 16.8413 4.40266 16.9576 4.29766 17.1938C4.19454 17.4245 4.09891 17.6607 4.03329 17.9045C3.98266 18.092 3.94891 18.2851 3.91516 18.4763C3.69204 19.757 3.59079 21.1257 3.00016 22.3032C2.95329 22.3951 2.99079 22.5076 3.08454 22.5545C3.11079 22.5676 3.14079 22.5751 3.16891 22.5751C3.23829 22.5751 3.30391 22.5376 3.33766 22.472C3.64516 21.8588 3.80454 21.1876 3.93579 20.522C3.92829 21.1238 3.92454 21.7313 3.90391 22.3876C3.90016 22.5151 3.89079 22.772 4.00704 22.8282C4.44391 23.0401 4.44391 22.3876 4.44391 22.3876C4.44391 22.3876 4.44954 22.9745 5.04391 22.9745C5.63829 22.9745 5.68141 22.3876 5.68141 22.3876C5.68141 22.3876 5.72454 22.9257 6.03016 22.8995C6.15391 22.8882 6.31704 22.8132 6.25891 22.1701C6.20079 21.5288 6.05641 19.2301 5.99454 18.5026C5.90829 17.4957 5.57829 16.8976 5.51079 16.5413C5.48641 16.4063 5.48454 16.2657 5.59141 16.1776C5.80704 15.9995 5.94579 15.7313 5.94579 15.4295C5.94579 15.1388 5.81829 14.8782 5.61579 14.7001C5.53891 14.6326 5.49954 14.5351 5.50704 14.4338C5.54266 13.9482 5.58204 13.2432 5.61391 13.0801C5.75266 12.347 6.11454 12.2157 6.48579 11.9982C6.85704 11.7788 12.2345 9.33758 12.5477 9.12945C13.127 8.74133 13.0033 8.38883 13.0033 8.38883Z" fill="#E2A610"/>
<path d="M13.003 8.38883C12.5399 9.0432 11.578 8.7507 11.578 8.7507C11.578 8.7507 9.1199 9.84008 9.28302 9.6432C9.44427 9.44633 11.128 8.4882 11.128 8.4882C11.128 8.4882 11.0024 8.02695 11.0155 7.83008C11.0155 7.83008 6.87177 10.2245 5.2649 11.3757C4.85052 11.6738 4.33677 12.1613 4.7549 12.647C4.94802 12.8701 5.32115 12.917 5.55927 12.7407C5.70365 12.6357 5.81615 12.482 5.94365 12.3601C6.10115 12.2063 6.2924 12.1088 6.4799 11.9982C6.85115 11.7788 12.2286 9.33758 12.5418 9.12945C13.1268 8.74133 13.003 8.38883 13.003 8.38883Z" fill="#FFCA28"/>
<path d="M4.89577 17.2238C4.64827 17.2238 4.48139 17.2031 4.32952 17.1675C4.27327 17.1544 4.23577 17.1038 4.23952 17.0456L4.28827 16.3294C4.29389 16.2563 4.36327 16.2056 4.43452 16.2263C4.60327 16.275 4.94077 16.3238 5.49202 16.2075C5.55952 16.1925 5.62702 16.2394 5.63452 16.3088L5.70952 17.0213C5.71514 17.0794 5.67764 17.1338 5.62139 17.1469C5.33452 17.2125 5.12639 17.2238 4.89577 17.2238Z" fill="#9E740B"/>
<path d="M18.574 17.1413C18.574 17.1413 18.9058 15.4088 18.7727 13.5656C18.7502 13.2544 18.559 12.9863 18.4108 14.0756C18.3265 14.7 18.1427 16.5694 17.8296 17.7375C18.3077 17.3925 18.574 17.1413 18.574 17.1413Z" fill="#616161"/>
<path d="M12.3243 6.89812C12.4612 6.94125 12.5868 7.04625 12.6225 7.18687C12.6693 7.37437 12.5512 7.56187 12.4237 7.70812C12.1743 7.995 11.8312 8.24625 11.4506 8.23312C11.325 8.22937 11.19 8.18812 11.1131 8.08875C11.0587 8.01937 11.04 7.92937 11.0343 7.84125C11.0006 7.19812 11.7281 6.71062 12.3243 6.89812Z" fill="#616161"/>
</svg>
