<svg width="24" height="24" viewBox="0 0 24 24" fill="none" xmlns="http://www.w3.org/2000/svg">
<path d="M4.94436 21.0319C4.94436 21.195 4.90123 22.3106 4.88998 22.5731C4.87873 22.8356 4.68186 23.2294 4.44186 23.2406C4.20186 23.2519 3.11998 23.2181 2.96623 23.2088C2.81248 23.1994 2.33811 23.01 2.27811 22.29C2.21436 21.5269 2.18436 20.6756 2.18998 20.355C2.19561 20.0269 2.16748 19.5675 2.16748 19.5675L4.94436 21.0319Z" fill="#4E433C"/>
<path d="M19.3105 21.1069C19.3105 21.1069 19.3218 22.3425 19.3218 22.5713C19.3218 22.8 19.5187 23.2163 20.1299 23.2388C20.7412 23.2613 21.0374 23.2481 21.2774 23.2388C21.583 23.2275 21.8343 22.8675 21.8887 22.1681C21.9449 21.4369 21.9543 20.67 21.9655 20.3869C21.9768 20.1019 21.9993 19.65 21.9993 19.65C21.9993 19.65 19.453 20.2875 19.4418 20.3419C19.4305 20.3963 19.3105 21.1069 19.3105 21.1069Z" fill="#4E433C"/>
<path d="M3.51743 10.4007L2.68868 10.3857L0.217427 10.4944C0.208052 10.8 0.298052 11.1244 0.838052 11.295C1.37805 11.4657 3.24743 11.4113 3.24743 11.4113L2.9943 11.5688C2.9943 11.5688 2.36805 13.2075 2.15243 14.0419C1.8393 15.2532 2.0193 18.2625 2.0193 18.2625L2.27618 19.9894C2.27618 19.9894 2.66993 21.0282 3.58868 21.2138C4.50743 21.3994 8.86868 21.5232 11.8799 21.6169C14.8912 21.7107 20.2256 21.2944 20.7993 21.15C21.3712 21.0075 21.8868 20.2632 22.0293 19.8057C22.1718 19.3482 22.2299 17.8032 22.2299 17.8032C22.2299 17.8032 22.3837 15.6038 22.1756 14.3157C22.0537 13.56 21.4162 11.9888 21.2962 11.7319C21.1762 11.475 21.0018 11.0063 21.0018 11.0063C21.0018 11.0063 23.0362 11.0325 23.3662 10.8338C23.7468 10.6032 23.7749 10.38 23.7806 10.1494C23.7843 9.95817 23.7131 9.89255 23.6606 9.86255C23.5331 9.8888 21.1012 10.0407 21.1012 10.0407H20.3868L3.51743 10.4007Z" fill="#D70617"/>
<path d="M3.37336 18.5812L1.92773 18.0862C1.92773 18.0862 1.98023 19.83 2.41898 20.19C2.85773 20.55 3.48586 20.8162 4.34648 20.895C5.20711 20.9737 9.45773 21.0356 12.0115 21.0356C14.5652 21.0356 20.0534 20.8012 20.8521 20.565C21.6509 20.3306 21.8777 20.0756 22.0277 19.7662C22.2471 19.3125 22.3127 17.9644 22.3127 17.9644C22.3127 17.9644 21.5271 18.6525 21.3077 18.7462C21.0884 18.84 11.3534 19.185 11.3065 19.185C11.2596 19.1869 3.37336 18.5812 3.37336 18.5812Z" fill="#FF2A23"/>
<path d="M2.90234 11.8031C2.95297 12.1219 3.04672 12.6637 3.95234 12.885C4.85797 13.1062 7.61984 14.2106 12.148 14.1225C16.6761 14.0344 19.6161 12.6206 19.9461 12.4875C20.278 12.3544 21.0448 11.9569 21.073 11.4712C21.0917 11.1431 20.8292 10.5206 20.8292 10.5206C20.8292 10.5206 20.1673 8.15625 19.813 7.1625C19.4586 6.16875 18.9955 4.93125 18.6861 4.40062C18.3767 3.87 17.8686 3.73875 17.2498 3.67125C16.6311 3.60562 14.6436 3.54 12.0148 3.56062C9.09922 3.58312 7.17734 3.67125 6.68984 3.69375C6.20422 3.71625 5.76172 4.00312 5.47484 4.53375C5.18797 5.06437 4.71359 6.1275 4.14922 7.84687C3.64109 9.39375 3.26609 10.8956 3.26609 10.8956C3.26609 10.8956 2.90234 11.7975 2.90234 11.8031Z" fill="#FF2A23"/>
<path d="M21.1517 10.0613C21.2061 10.1231 21.5642 10.4025 22.3967 10.3913C23.338 10.3781 23.7449 9.94502 23.7449 9.94502C23.7449 9.94502 23.5855 9.4594 22.9049 9.1444C22.1661 8.80127 21.4967 8.83502 21.2211 9.00377C20.998 9.14065 21.1517 10.0613 21.1517 10.0613Z" fill="#FF2A23"/>
<path d="M2.9154 10.4475C2.9154 10.4475 3.1704 9.64316 2.68103 9.39566C2.19165 9.14816 0.957901 9.35066 0.468526 9.78754C0.204151 10.0219 0.215401 10.4963 0.215401 10.4963C0.215401 10.4963 0.721651 10.7719 1.6704 10.7644C2.61915 10.7569 2.9154 10.4475 2.9154 10.4475Z" fill="#FF2A23"/>
<path d="M8.78806 17.5856C9.08619 17.7544 15.0262 17.6756 15.2212 17.5987C15.4162 17.52 16.1681 15.9131 16.2843 15.5625C16.3462 15.3787 16.3237 15.0056 15.8568 14.8369C15.3899 14.6681 13.7306 14.5125 11.9793 14.4994C10.2281 14.4862 8.52931 14.6287 8.00994 14.8237C7.70619 14.9381 7.66119 15.195 7.75119 15.4462C8.09431 16.3894 8.48994 17.4169 8.78806 17.5856Z" fill="#474C4F"/>
<path d="M1.99704 17.8181C1.84329 17.8556 1.90516 19.1419 2.74329 19.4025C3.76891 19.7213 10.0033 19.725 11.972 19.7025C13.9408 19.68 20.5164 19.7456 21.122 19.5394C22.0502 19.2225 22.5208 17.8556 22.2283 17.8031C21.8589 17.7375 21.6133 18.3488 19.832 18.3694C17.8858 18.39 13.8564 18.5213 11.9777 18.4988C10.0989 18.4763 4.12329 18.4988 3.19516 18.2269C2.26704 17.955 2.15266 17.7806 1.99704 17.8181Z" fill="#FF6B5D"/>
<path d="M17.1376 14.2425C17.1544 14.4375 17.3532 14.6681 17.6569 14.6456C17.9626 14.6212 19.8619 14.5293 20.1788 14.4356C20.3982 14.37 20.8763 14.0193 20.9082 13.5675C20.9419 13.0931 20.9026 12.8531 20.8951 12.6862C20.8838 12.4556 20.8013 12.2737 20.2557 12.2887C19.7101 12.3056 18.0638 12.3637 17.7469 12.3787C17.3944 12.3956 17.1432 12.5737 17.1357 13.0106C17.1282 13.3706 17.1151 13.9837 17.1376 14.2425Z" fill="#FEECCB"/>
<path d="M17.8912 13.5056C17.8949 14.1694 18.3243 14.6231 19.1549 14.5556C20.1843 14.4713 20.3399 13.92 20.3024 13.3238C20.263 12.6994 19.7868 12.3094 19.1437 12.33C18.4818 12.3525 17.8855 12.6806 17.8912 13.5056Z" fill="#FFFEFF"/>
<path d="M6.89055 14.5631C7.04242 14.4112 6.9843 13.5356 6.95992 13.0219C6.93742 12.5081 6.44617 12.4387 6.07305 12.4387C5.69992 12.4387 3.64492 12.4162 3.30555 12.45C3.0843 12.4725 3.1743 13.545 3.23617 13.7925C3.2943 14.0269 3.64492 14.5856 4.27492 14.6212C4.90492 14.6569 6.70867 14.7431 6.89055 14.5631Z" fill="#FEECCB"/>
<path d="M3.94873 13.5281C3.94873 14.115 4.30123 14.6812 5.17686 14.6644C6.11623 14.6456 6.33186 13.9425 6.34123 13.5281C6.35061 13.1137 6.09373 12.4087 5.10373 12.4275C4.13623 12.4462 3.94873 13.1681 3.94873 13.5281Z" fill="#FFFEFF"/>
<path d="M7.01067 4.36869C6.68067 4.40994 6.24192 4.50931 5.97942 5.03244C5.71692 5.55744 5.27629 6.66369 5.01754 7.39306C4.63317 8.47681 4.16067 10.0331 4.09129 10.3481C4.02192 10.6631 4.09129 10.9424 4.61629 10.9781C5.14129 11.0137 8.46192 11.2031 11.9419 11.1712C15.6657 11.1356 19.32 10.9256 19.6519 10.8918C19.9838 10.8562 20.1413 10.5243 20.0719 10.1399C20.0025 9.75557 19.3725 7.86744 19.0763 7.02744C18.7782 6.18744 18.3732 5.27056 18.2213 5.00056C18.09 4.76806 17.8875 4.54494 17.2407 4.43994C16.6838 4.34994 13.7438 4.21306 11.9607 4.22994C10.1757 4.24681 7.56942 4.29931 7.01067 4.36869Z" fill="#547078"/>
<path d="M6.73109 9.73691L5.10547 9.31691C5.10547 9.31691 5.48047 8.02691 5.82172 7.13066C6.04859 6.53628 6.22672 6.02066 6.38047 5.67941C6.47422 5.47316 6.65984 5.19003 7.18484 5.15441C7.70984 5.11878 8.77672 5.04941 12.1667 5.03253C15.5586 5.01566 16.6798 5.14316 16.9742 5.19003C17.3061 5.24253 17.6905 5.25941 17.953 5.88941C18.2155 6.51941 18.5473 7.60316 18.793 8.33628C18.9298 8.74503 19.1248 9.48941 19.1248 9.48941L6.73109 9.73691Z" fill="#AFE3FB"/>
<path d="M7.22076 9.02066C7.22076 9.02066 7.29014 8.04191 7.29014 7.58628C7.29014 7.16628 7.67451 6.79878 8.00639 6.76503C8.33826 6.72941 9.36951 6.74816 9.61514 6.76503C9.86076 6.78191 10.2451 7.04441 10.262 7.48128C10.2789 7.91816 10.3145 8.86316 10.3145 8.86316H14.0383C14.0383 8.86316 14.0383 7.81503 14.0551 7.42878C14.072 7.04253 14.3176 6.85128 14.702 6.83441C15.0864 6.81753 16.1008 6.79878 16.397 6.81753C16.6951 6.83441 16.9745 7.08003 17.0083 7.51691C17.0439 7.95378 17.0439 9.09003 17.0439 9.09003C17.0439 9.09003 17.5445 9.10503 18.017 9.16128C18.5139 9.22128 19.0764 9.30753 19.0764 9.30753C19.0764 9.30753 19.3689 10.05 18.8795 10.0857C18.4426 10.1175 14.4564 10.155 11.8164 10.1907C9.17639 10.2263 5.50514 10.1794 5.31201 10.1738C5.04951 10.1644 4.98014 9.91128 4.99701 9.73691C5.01389 9.56253 5.10201 9.31691 5.10201 9.31691C5.10201 9.31691 5.73201 9.19503 6.15014 9.14253C6.57389 9.09003 7.22076 9.02066 7.22076 9.02066Z" fill="#96C8EB"/>
</svg>
