<svg width="24" height="25" viewBox="0 0 24 25" fill="none" xmlns="http://www.w3.org/2000/svg">
<path d="M0.707031 13.9495L3.77078 10.9307L8.98703 10.0063L8.47141 12.7363L1.41953 14.9038L0.963906 14.707L0.707031 13.9495Z" fill="#CA2C31"/>
<path d="M4.30135 11.705L0.975098 14.7275L3.42197 15.92L7.13635 14.0244V13.13L7.89572 11.0825L4.30135 11.705Z" fill="#A02422"/>
<path d="M12.1726 17.0282L10.5657 17.7257L9.04883 20.9413C9.04883 20.9413 10.3838 23.8982 10.4438 23.8982C10.5038 23.8982 11.2632 23.9582 11.2632 23.9582L13.9632 20.9395L14.6457 15.7832L12.1726 17.0282Z" fill="#A02422"/>
<path d="M10.5935 19.4074C10.5935 19.4074 11.4879 19.2256 12.1254 18.9218C12.7629 18.6181 13.5504 18.1643 13.5504 18.1643L13.2617 20.6824L10.4398 23.8943C10.4398 23.8943 10.3292 23.7574 9.86041 22.7374C9.48729 21.9237 9.35791 21.6331 9.35791 21.6331L10.5935 19.4074Z" fill="#CA2C31"/>
<path d="M5.92125 15.6238C5.92125 15.6238 4.845 15.5338 3.66563 17.0245C2.58938 18.3857 2.085 20.602 1.89 21.172C1.695 21.742 1.22813 21.8582 1.38375 22.1188C1.53938 22.3795 2.2125 22.3645 3.04313 22.2613C3.87375 22.1582 4.58625 21.8976 4.58625 21.8976C4.58625 21.8976 4.55063 21.9876 4.43063 22.1826C4.3875 22.252 4.2375 22.3513 4.24875 22.4545C4.275 22.7001 6.37875 22.7057 8.05875 20.977C9.87375 19.1113 8.9925 17.5813 8.9925 17.5813L5.92125 15.6238Z" fill="#F7D74D"/>
<path d="M6.24561 16.4919C6.24561 16.4919 5.08498 16.5538 4.12498 18.0444C3.16498 19.5351 2.71873 21.2619 2.81061 21.3782C2.90061 21.4944 4.68936 20.8476 5.11873 20.9769C5.41311 21.0669 5.26123 21.3651 5.33998 21.4438C5.40561 21.5094 6.18186 21.6201 7.43811 20.2588C8.69623 18.8976 8.39811 16.9851 8.39811 16.9851L6.24561 16.4919Z" fill="#FBF0B4"/>
<path d="M6.8157 14.4575C6.8157 14.4575 6.23257 14.9769 6.02445 15.275C5.81632 15.5731 5.81632 15.5994 5.82945 15.6894C5.84257 15.7794 6.0582 16.7675 6.95632 17.6338C8.05882 18.6969 9.0432 18.8394 9.1857 18.8394C9.3282 18.8394 10.2751 17.7763 10.2751 17.7763L6.8157 14.4575Z" fill="#858585"/>
<path d="M9.39355 17.6074C9.39355 17.6074 10.3386 18.228 11.9229 17.6955C14.0886 16.968 15.6767 15.3405 17.6436 13.2855C19.5411 11.3018 21.1329 8.8399 21.1329 8.8399L20.0173 5.10303L9.39355 17.6074Z" fill="#437687"/>
<path d="M12.748 15.562L13.0087 14.752L13.6612 14.8438C13.6612 14.8438 14.158 15.0782 14.5237 15.2488C14.8893 15.4195 15.3599 15.5488 15.3599 15.5488L14.4318 16.3326C14.4318 16.3326 13.9255 16.1413 13.5562 15.9801C13.1399 15.7982 12.748 15.562 12.748 15.562Z" fill="#3F545F"/>
<path d="M15.8101 3.52637C15.8101 3.52637 14.0064 4.57262 11.4207 7.01949C9.0901 9.22449 7.36323 11.2195 6.9451 12.9164C6.59635 14.3376 6.78198 15.2001 7.5751 16.132C8.41323 17.1182 9.39573 17.6076 9.39573 17.6076C9.39573 17.6076 10.1345 17.6189 13.217 15.247C17.0626 12.2864 20.1432 7.32887 20.1432 7.32887L15.8101 3.52637Z" fill="#8DAFBF"/>
<path d="M19.534 8.34509C19.534 8.34509 17.9646 7.67571 16.8452 6.11384C15.7333 4.56321 15.8215 3.51509 15.8215 3.51509C15.8215 3.51509 16.7515 2.78571 18.8421 1.95134C20.2483 1.39071 22.1627 1.10384 22.7927 1.57071C23.4227 2.03759 22.3615 4.37946 22.3615 4.37946L20.4283 8.12197L19.534 8.34509Z" fill="#D83F22"/>
<path d="M12.7821 15.5751C12.7821 15.5751 11.4265 14.8832 10.564 13.8988C8.93271 12.0407 8.59521 10.0007 8.59521 10.0007L9.41459 9.03882C9.41459 9.03882 9.61896 11.2063 11.3683 13.0794C12.5083 14.3001 13.699 14.8588 13.699 14.8588C13.699 14.8588 13.4608 15.0594 13.2058 15.2544C13.0427 15.3801 12.7821 15.5751 12.7821 15.5751Z" fill="#6896A5"/>
<path d="M21.1331 8.84007C21.1331 8.84007 21.9468 7.85944 22.7174 5.64882C23.7937 2.56632 22.8562 1.63257 22.8562 1.63257C22.8562 1.63257 22.5393 3.09882 21.4387 5.13694C20.5556 6.77007 19.4868 8.32444 19.4868 8.32444C19.4868 8.32444 20.0756 8.58882 20.3943 8.68069C20.7956 8.79694 21.1331 8.84007 21.1331 8.84007Z" fill="#A02422"/>
<path d="M7.46426 13.5613C7.70801 13.7938 8.07739 13.5501 8.31926 12.9801C8.56301 12.4101 8.55926 12.0913 8.37176 11.9563C8.13926 11.7876 7.74926 12.157 7.57864 12.4851C7.39114 12.8488 7.28051 13.3851 7.46426 13.5613Z" fill="#B3E1EE"/>
<path d="M15.9283 4.27441C15.9283 4.27441 14.5014 5.30004 12.9789 6.69504C11.582 7.97566 10.6558 8.97691 10.5283 9.20941C10.3933 9.45879 10.3914 9.81129 10.4964 9.99129C10.6014 10.1713 10.8339 10.265 11.0458 10.1075C11.2576 9.94816 12.767 8.27941 14.1301 7.08691C15.377 5.99566 16.3389 5.30379 16.3389 5.30379C16.3389 5.30379 16.7289 4.61379 16.6651 4.45629C16.6014 4.29691 15.9283 4.27441 15.9283 4.27441Z" fill="#B3E1EE"/>
<path d="M15.9282 4.27448C15.9282 4.27448 16.982 3.46635 18.1295 2.89823C19.1963 2.36948 20.2576 1.92885 20.4488 2.31135C20.6307 2.6751 19.442 3.1701 18.3957 3.8376C17.3495 4.5051 16.3426 5.30198 16.3426 5.30198C16.3426 5.30198 16.1888 5.02073 16.0895 4.7601C15.9788 4.47698 15.9282 4.27448 15.9282 4.27448Z" fill="#ED6A65"/>
<path d="M16.7983 7.85934C15.7539 6.89747 14.3008 7.15622 13.5846 8.01122C12.8496 8.89247 12.9039 10.2387 13.7721 11.0487C14.5614 11.7837 16.0296 11.9506 16.9146 10.9193C17.7021 10.0043 17.6533 8.64497 16.7983 7.85934Z" fill="#E1E1E1"/>
<path d="M14.1242 8.35056C13.5036 8.95994 13.5373 10.1674 14.2761 10.7187C14.9211 11.2006 15.8361 11.1762 16.4098 10.5893C16.9836 10.0024 16.9836 8.93556 16.4454 8.38431C15.8267 7.75244 14.8348 7.65306 14.1242 8.35056Z" fill="#3F545F"/>
<path d="M9.37503 14.9168C9.37503 14.9168 10.5357 13.7393 10.6632 13.8668C10.7907 13.9943 10.7738 14.7087 10.2188 15.5037C9.66191 16.2987 8.43753 17.7143 7.46816 18.6687C6.51191 19.6081 5.16378 20.6825 5.03628 20.6637C4.93691 20.6487 4.53378 20.4481 4.37253 20.2531C4.21503 20.06 4.68566 19.1468 4.87503 18.845C5.06628 18.5431 9.37503 14.9168 9.37503 14.9168Z" fill="#A02524"/>
<path d="M3.98087 19.5969C3.96587 19.8669 4.37837 20.2607 4.37837 20.2607L10.6634 13.8688C10.6634 13.8688 10.369 13.5369 9.50274 14.075C8.62899 14.6188 7.86399 15.2713 6.73524 16.3644C5.16212 17.8907 3.99587 19.3269 3.98087 19.5969Z" fill="#CA2C31"/>
<path d="M3.57376 7.42823C3.36563 7.63635 3.35626 7.9701 3.58876 8.16135C3.79501 8.33198 4.13063 8.22135 4.25626 8.0676C4.38188 7.91385 4.36688 7.5801 4.20001 7.4151C4.03313 7.24823 3.70126 7.3026 3.57376 7.42823Z" fill="white"/>
<path opacity="0.5" d="M7.6914 7.18428C7.5339 7.35866 7.58453 7.61741 7.73078 7.71303C7.87703 7.80866 8.0964 7.79928 8.20328 7.66803C8.2989 7.54991 8.31015 7.31366 8.1639 7.16741C8.0364 7.04178 7.79265 7.07178 7.6914 7.18428Z" fill="white"/>
<path d="M10.4158 2.7294C10.4158 2.7294 10.6445 2.0769 10.7795 2.0694C10.9164 2.0619 11.1133 2.7219 11.1133 2.7219C11.1133 2.7219 11.7901 2.7294 11.8351 2.82877C11.8933 2.95627 11.402 3.38377 11.402 3.38377C11.402 3.38377 11.5614 4.02127 11.4864 4.09815C11.402 4.18252 10.8189 3.8469 10.8189 3.8469C10.8189 3.8469 10.2189 4.26502 10.0895 4.15065C9.97702 4.05127 10.2114 3.37627 10.2114 3.37627C10.2114 3.37627 9.64889 2.96565 9.67889 2.85127C9.72202 2.69002 10.4158 2.7294 10.4158 2.7294Z" fill="white"/>
<path d="M18.1895 18.3744C18.4164 18.5 18.7014 18.4287 18.8064 18.1869C18.902 17.9712 18.7258 17.7144 18.5664 17.645C18.407 17.5756 18.1277 17.6675 18.0264 17.8494C17.927 18.0294 18.0527 18.2994 18.1895 18.3744Z" fill="white"/>
<path d="M21.4106 12.845C21.2812 12.6444 21.0018 12.5788 20.82 12.74C20.6437 12.8975 20.6868 13.145 20.7862 13.2706C20.8856 13.3963 21.1518 13.4431 21.3131 13.34C21.4743 13.2369 21.4893 12.965 21.4106 12.845Z" fill="white"/>
</svg>
