<svg width="227" height="38" viewBox="0 0 227 38" fill="none" xmlns="http://www.w3.org/2000/svg">
<path d="M4.63206 1.9545H13.1154V9.52297H19.2284V15.5528H13.1154V27.9867C13.1154 30.6066 13.9471 31.1056 16.7749 31.1056H19.2284V37.2602H13.8224C6.96082 37.2602 4.63206 35.9295 4.63206 29.4838V15.5528H0.265625V9.52297H4.63206V1.9545ZM48.0053 28.6105C45.5102 35.1809 39.6883 38.0087 34.1574 38.0087C25.1335 38.0087 18.9373 32.5611 18.9373 23.2876C18.9373 14.3884 25.6741 8.77444 33.8248 8.77444C43.0566 8.77444 48.7122 15.7607 48.13 25.6164H27.5454C27.7949 29.567 30.8722 31.3551 33.9495 31.3551C37.1931 31.3551 39.2308 30.1907 40.1873 28.5689L48.0053 28.6105ZM27.6702 20.4598H39.6883C39.5219 16.9667 37.11 15.2201 33.8663 15.2201C30.7891 15.2201 28.1276 16.8004 27.6702 20.4598ZM77.3227 19.7113H69.4216C68.673 16.4677 66.6354 15.3449 64.1403 15.3449C61.1046 15.3449 58.1104 17.4241 58.1104 23.3708C58.1104 29.4006 61.1046 31.3967 64.1403 31.3967C67.2591 31.3967 69.2136 29.7749 69.8374 27.1134H77.7386C75.8257 35.3473 69.1721 37.9671 63.5997 37.9671C54.4509 37.9671 49.4192 32.1037 49.4192 23.246C49.4192 14.3884 55.1995 8.73286 63.5997 8.73286C69.3384 8.73286 75.6593 11.3527 77.3227 19.7113ZM87.1784 13.224C88.3843 11.1448 91.4201 8.94079 95.7865 8.94079C102.898 8.94079 105.143 13.1409 105.143 20.6678V37.3434H96.6598V22.8302C96.6598 18.8796 96.535 15.636 92.4181 15.636C88.7586 15.636 87.22 18.0063 87.22 23.2045V37.4265H78.7366V0H87.22L87.1784 13.224ZM124.688 17.7152C124.106 15.636 121.943 15.0538 119.282 15.0538C116.329 15.0538 114.874 15.7607 114.874 17.133C114.874 18.4222 115.872 19.1707 118.284 19.6281L123.482 20.543C130.136 21.749 133.338 23.7451 133.338 28.6105C133.338 34.8483 127.599 38.0087 119.906 38.0087C112.504 38.0087 107.264 34.8899 106.308 28.3194H114.209C114.957 30.9809 117.12 31.8126 120.031 31.8126C123.066 31.8126 125.187 30.9809 125.187 29.3175C125.187 28.1115 124.106 27.2798 120.821 26.7392L115.872 25.9075C110.508 25.0342 106.848 22.3312 106.848 17.4241C106.848 11.8933 112.67 8.85761 119.532 8.85761C125.852 8.85761 131.633 11.3943 132.672 17.7568L124.688 17.7152ZM137.704 1.9545H146.188V9.52297H152.301V15.5528H146.188V27.9867C146.188 30.6066 147.019 31.1056 149.847 31.1056H152.259V37.2602H146.895C140.033 37.2602 137.704 35.9295 137.704 29.4838V15.5528H133.338V9.52297H137.704V1.9545ZM171.679 18.8796C171.679 15.5528 170.099 14.4716 166.98 14.4716C164.235 14.4716 162.406 15.8855 162.031 18.5469H154.089C154.505 13.3072 159.453 8.69127 167.687 8.69127C175.713 8.69127 180.246 11.9349 180.079 20.3767L179.955 26.4065V29.3175C179.955 32.3532 180.163 35.6384 180.578 37.3434H172.22L172.095 33.975C170.016 36.9275 166.731 38.0087 162.738 38.0087C157.457 38.0087 153.132 34.9314 153.132 29.8581C153.132 23.0381 160.826 20.8341 171.596 20.0024L171.679 18.8796ZM171.929 24.9926C165.982 25.5748 162.031 26.157 162.031 29.2343C162.031 31.0224 163.736 32.2284 165.94 32.2284C169.35 32.2284 171.929 30.7729 171.929 25.658V24.9926ZM199.541 17.7152C198.793 17.5905 197.961 17.5073 197.212 17.5489C193.095 17.5489 190.975 19.0459 190.975 23.3708V37.3018H182.45V9.52297H190.642V14.8043C191.931 11.4775 194.26 9.52298 198.21 9.35664H198.834C199.084 9.35664 199.292 9.35663 199.541 9.39822V17.7152ZM218.338 17.7152C217.755 15.636 215.593 15.0538 212.932 15.0538C209.979 15.0538 208.524 15.7607 208.524 17.133C208.524 18.4222 209.522 19.1707 211.934 19.6281L217.09 20.543C223.744 21.749 226.946 23.7451 226.946 28.6105C226.946 34.8483 221.207 38.0087 213.514 38.0087C206.153 38.0087 200.872 34.8899 199.915 28.3194H207.817C208.565 30.9809 210.728 31.8126 213.639 31.8126C216.674 31.8126 218.795 30.9809 218.795 29.3175C218.795 28.1115 217.714 27.2798 214.429 26.7392L209.48 25.9075C204.116 25.0342 200.498 22.3312 200.498 17.4241C200.498 11.8933 206.32 8.85761 213.181 8.85761C219.502 8.85761 225.282 11.3943 226.322 17.7568L218.338 17.7152Z" fill="#66ED69"/>
</svg>
